<?xml version="1.0" standalone="no"?>
<!DOCTYPE svg PUBLIC "-//W3C//DTD SVG 20010904//EN"
 "http://www.w3.org/TR/2001/REC-SVG-20010904/DTD/svg10.dtd">
<svg version="1.0" xmlns="http://www.w3.org/2000/svg"
 width="32.000000pt" height="32.000000pt" viewBox="0 0 32.000000 32.000000"
 preserveAspectRatio="xMidYMid meet">

<g transform="translate(0.000000,32.000000) scale(0.100000,-0.100000)"
fill="#000000" stroke="none">
<path d="M108 273 c6 -2 10 -8 8 -12 -3 -4 1 -8 9 -8 11 0 12 4 4 14 -6 7 -17
13 -23 12 -7 0 -6 -2 2 -6z"/>
<path d="M181 266 c-10 -12 -9 -14 5 -12 10 2 20 8 22 14 5 17 -13 15 -27 -2z"/>
<path d="M101 227 c-17 -21 2 -35 21 -16 13 14 14 19 3 23 -7 2 -18 -1 -24 -7z"/>
<path d="M184 232 c-6 -4 -4 -13 7 -24 14 -13 19 -14 23 -3 6 17 -16 36 -30
27z"/>
<path d="M81 179 c-1 -33 22 -68 34 -49 6 9 4 11 -5 5 -10 -6 -12 -4 -7 9 4 9
3 14 -2 11 -5 -3 -12 7 -14 22 -4 28 -4 28 -6 2z"/>
<path d="M221 178 c0 -16 -4 -27 -8 -26 -5 2 -18 -4 -31 -13 -19 -14 -20 -17
-7 -23 11 -4 14 -2 9 6 -5 7 -2 9 9 5 12 -4 14 -2 10 10 -4 11 -3 14 5 9 15
-9 26 16 19 41 -3 12 -5 8 -6 -9z"/>
<path d="M125 120 c-3 -6 1 -7 9 -4 18 7 21 14 7 14 -6 0 -13 -4 -16 -10z"/>
<path d="M142 90 c0 -14 2 -19 5 -12 2 6 2 18 0 25 -3 6 -5 1 -5 -13z"/>
<path d="M162 90 c0 -14 2 -19 5 -12 2 6 2 18 0 25 -3 6 -5 1 -5 -13z"/>
<path d="M129 51 c23 -17 27 -18 48 -4 13 8 23 17 23 19 0 7 -35 -10 -42 -20
-5 -8 -8 -8 -8 0 0 7 -10 14 -22 17 -23 6 -22 6 1 -12z"/>
</g>
</svg>
